<svg width="135" height="45" viewBox="0 0 135 45" fill="none" xmlns="http://www.w3.org/2000/svg">
<path d="M85.9787 10.3419V33.5872H90.5377C90.7189 33.5872 90.8658 33.4403 90.8658 33.2591V14.3832H91.8819C92.0631 14.3832 92.21 14.2364 92.21 14.0552V10.67C92.21 10.4888 92.0631 10.3419 91.8819 10.3419H85.9787Z" fill="url(#paint0_linear_118_3028)"/>
<path d="M85.9787 10.3419V33.5872H90.5377C90.7189 33.5872 90.8658 33.4403 90.8658 33.2591V14.3832H91.8819C92.0631 14.3832 92.21 14.2364 92.21 14.0552V10.67C92.21 10.4888 92.0631 10.3419 91.8819 10.3419H85.9787Z" fill="#557FFF"/>
<path d="M7.21074 33.8378C5.81143 33.8378 4.44345 33.6707 3.1068 33.3366C1.90039 33.0161 0.915154 32.6276 0.151092 32.171C0.0115141 32.0876 -0.0379352 31.9116 0.0305368 31.7641L1.3824 28.8524C1.46603 28.6723 1.68905 28.6075 1.8612 28.7065C2.54645 29.1006 3.34803 29.4326 4.26593 29.7025C5.33107 29.9949 6.37533 30.1411 7.39871 30.1411C9.46635 30.1411 10.5002 29.6294 10.5002 28.6061C10.5002 28.1257 10.2182 27.7811 9.65431 27.5722C9.09041 27.3634 8.22368 27.1859 7.0541 27.0397C5.67568 26.8308 4.53744 26.5906 3.63937 26.3191C2.74131 26.0476 1.95811 25.5673 1.28979 24.8781C0.642344 24.1888 0.318623 23.2072 0.318623 21.9332C0.318623 20.8681 0.621459 19.9283 1.22713 19.1137C1.85369 18.2783 2.75175 17.6309 3.92132 17.1714C5.11178 16.7119 6.51109 16.4822 8.11925 16.4822C9.30971 16.4822 10.4897 16.618 11.6593 16.8895C12.7206 17.1129 13.6159 17.4193 14.3452 17.8087C14.494 17.8882 14.5496 18.071 14.478 18.2238L13.1251 21.1118C13.0441 21.2846 12.8334 21.3516 12.6639 21.2639C11.2666 20.5405 9.75168 20.1789 8.11925 20.1789C7.07499 20.1789 6.29179 20.3251 5.76966 20.6175C5.24753 20.9099 4.98647 21.2858 4.98647 21.7453C4.98647 22.2674 5.26842 22.6329 5.83232 22.8417C6.39622 23.0506 7.29428 23.249 8.52651 23.437C9.90494 23.6667 11.0327 23.9173 11.9099 24.1888C12.7871 24.4395 13.5494 24.9094 14.1968 25.5986C14.8443 26.2878 15.168 27.2485 15.168 28.4808C15.168 29.525 14.8547 30.4544 14.2282 31.2689C13.6016 32.0835 12.6827 32.7205 11.4713 33.1799C10.2809 33.6185 8.86068 33.8378 7.21074 33.8378Z" fill="url(#paint1_linear_118_3028)"/>
<path d="M7.21074 33.8378C5.81143 33.8378 4.44345 33.6707 3.1068 33.3366C1.90039 33.0161 0.915154 32.6276 0.151092 32.171C0.0115141 32.0876 -0.0379352 31.9116 0.0305368 31.7641L1.3824 28.8524C1.46603 28.6723 1.68905 28.6075 1.8612 28.7065C2.54645 29.1006 3.34803 29.4326 4.26593 29.7025C5.33107 29.9949 6.37533 30.1411 7.39871 30.1411C9.46635 30.1411 10.5002 29.6294 10.5002 28.6061C10.5002 28.1257 10.2182 27.7811 9.65431 27.5722C9.09041 27.3634 8.22368 27.1859 7.0541 27.0397C5.67568 26.8308 4.53744 26.5906 3.63937 26.3191C2.74131 26.0476 1.95811 25.5673 1.28979 24.8781C0.642344 24.1888 0.318623 23.2072 0.318623 21.9332C0.318623 20.8681 0.621459 19.9283 1.22713 19.1137C1.85369 18.2783 2.75175 17.6309 3.92132 17.1714C5.11178 16.7119 6.51109 16.4822 8.11925 16.4822C9.30971 16.4822 10.4897 16.618 11.6593 16.8895C12.7206 17.1129 13.6159 17.4193 14.3452 17.8087C14.494 17.8882 14.5496 18.071 14.478 18.2238L13.1251 21.1118C13.0441 21.2846 12.8334 21.3516 12.6639 21.2639C11.2666 20.5405 9.75168 20.1789 8.11925 20.1789C7.07499 20.1789 6.29179 20.3251 5.76966 20.6175C5.24753 20.9099 4.98647 21.2858 4.98647 21.7453C4.98647 22.2674 5.26842 22.6329 5.83232 22.8417C6.39622 23.0506 7.29428 23.249 8.52651 23.437C9.90494 23.6667 11.0327 23.9173 11.9099 24.1888C12.7871 24.4395 13.5494 24.9094 14.1968 25.5986C14.8443 26.2878 15.168 27.2485 15.168 28.4808C15.168 29.525 14.8547 30.4544 14.2282 31.2689C13.6016 32.0835 12.6827 32.7205 11.4713 33.1799C10.2809 33.6185 8.86068 33.8378 7.21074 33.8378Z" fill="#557FFF"/>
<path fill-rule="evenodd" clip-rule="evenodd" d="M26.2032 33.8378C24.428 33.8378 22.8303 33.4723 21.4101 32.7413C20.0108 31.9895 18.9143 30.9557 18.1207 29.6399C17.327 28.3241 16.9302 26.8308 16.9302 25.16C16.9302 23.4892 17.327 21.9959 18.1207 20.6801C18.9143 19.3644 20.0108 18.341 21.4101 17.61C22.8303 16.8581 24.428 16.4822 26.2032 16.4822C27.9785 16.4822 29.5658 16.8581 30.9651 17.61C32.3644 18.341 33.4608 19.3644 34.2545 20.6801C35.0481 21.9959 35.4449 23.4892 35.4449 25.16C35.4449 26.8308 35.0481 28.3241 34.2545 29.6399C33.4608 30.9557 32.3644 31.9895 30.9651 32.7413C29.5658 33.4723 27.9785 33.8378 26.2032 33.8378ZM26.2032 29.8279C27.4563 29.8279 28.4797 29.4101 29.2734 28.5747C30.0879 27.7184 30.4951 26.5802 30.4951 25.16C30.4951 23.7398 30.0879 22.612 29.2734 21.7766C28.4797 20.9203 27.4563 20.4922 26.2032 20.4922C24.9501 20.4922 23.9163 20.9203 23.1018 21.7766C22.2873 22.612 21.88 23.7398 21.88 25.16C21.88 26.5802 22.2873 27.7184 23.1018 28.5747C23.9163 29.4101 24.9501 29.8279 26.2032 29.8279Z" fill="url(#paint2_linear_118_3028)"/>
<path fill-rule="evenodd" clip-rule="evenodd" d="M26.2032 33.8378C24.428 33.8378 22.8303 33.4723 21.4101 32.7413C20.0108 31.9895 18.9143 30.9557 18.1207 29.6399C17.327 28.3241 16.9302 26.8308 16.9302 25.16C16.9302 23.4892 17.327 21.9959 18.1207 20.6801C18.9143 19.3644 20.0108 18.341 21.4101 17.61C22.8303 16.8581 24.428 16.4822 26.2032 16.4822C27.9785 16.4822 29.5658 16.8581 30.9651 17.61C32.3644 18.341 33.4608 19.3644 34.2545 20.6801C35.0481 21.9959 35.4449 23.4892 35.4449 25.16C35.4449 26.8308 35.0481 28.3241 34.2545 29.6399C33.4608 30.9557 32.3644 31.9895 30.9651 32.7413C29.5658 33.4723 27.9785 33.8378 26.2032 33.8378ZM26.2032 29.8279C27.4563 29.8279 28.4797 29.4101 29.2734 28.5747C30.0879 27.7184 30.4951 26.5802 30.4951 25.16C30.4951 23.7398 30.0879 22.612 29.2734 21.7766C28.4797 20.9203 27.4563 20.4922 26.2032 20.4922C24.9501 20.4922 23.9163 20.9203 23.1018 21.7766C22.2873 22.612 21.88 23.7398 21.88 25.16C21.88 26.5802 22.2873 27.7184 23.1018 28.5747C23.9163 29.4101 24.9501 29.8279 26.2032 29.8279Z" fill="#557FFF"/>
<path d="M42.001 32.7413C43.4421 33.4723 45.0607 33.8378 46.8568 33.8378C48.6321 33.8378 50.1776 33.4619 51.4933 32.71C52.737 32.0105 53.6643 31.0578 54.2751 29.852C54.3527 29.6987 54.2902 29.5136 54.1394 29.4313L50.9023 27.6657C50.744 27.5793 50.5465 27.6375 50.4508 27.7904C49.6003 29.1487 48.3919 29.8279 46.8255 29.8279C45.5515 29.8279 44.4968 29.4101 43.6614 28.5747C42.826 27.7393 42.4083 26.6011 42.4083 25.16C42.4083 23.7189 42.826 22.5807 43.6614 21.7453C44.4968 20.9099 45.5515 20.4922 46.8255 20.4922C48.3746 20.4922 49.5831 21.1733 50.451 22.5357C50.5467 22.686 50.7415 22.7431 50.8985 22.6587L54.1398 20.9176C54.2906 20.8366 54.3545 20.6528 54.2791 20.4992C53.6683 19.2547 52.7397 18.2916 51.4933 17.61C50.1776 16.8581 48.6321 16.4822 46.8568 16.4822C45.0607 16.4822 43.4421 16.8581 42.001 17.61C40.5808 18.341 39.4635 19.3644 38.6489 20.6801C37.8553 21.9959 37.4585 23.4892 37.4585 25.16C37.4585 26.8308 37.8553 28.3241 38.6489 29.6399C39.4635 30.9557 40.5808 31.9895 42.001 32.7413Z" fill="url(#paint3_linear_118_3028)"/>
<path d="M42.001 32.7413C43.4421 33.4723 45.0607 33.8378 46.8568 33.8378C48.6321 33.8378 50.1776 33.4619 51.4933 32.71C52.737 32.0105 53.6643 31.0578 54.2751 29.852C54.3527 29.6987 54.2902 29.5136 54.1394 29.4313L50.9023 27.6657C50.744 27.5793 50.5465 27.6375 50.4508 27.7904C49.6003 29.1487 48.3919 29.8279 46.8255 29.8279C45.5515 29.8279 44.4968 29.4101 43.6614 28.5747C42.826 27.7393 42.4083 26.6011 42.4083 25.16C42.4083 23.7189 42.826 22.5807 43.6614 21.7453C44.4968 20.9099 45.5515 20.4922 46.8255 20.4922C48.3746 20.4922 49.5831 21.1733 50.451 22.5357C50.5467 22.686 50.7415 22.7431 50.8985 22.6587L54.1398 20.9176C54.2906 20.8366 54.3545 20.6528 54.2791 20.4992C53.6683 19.2547 52.7397 18.2916 51.4933 17.61C50.1776 16.8581 48.6321 16.4822 46.8568 16.4822C45.0607 16.4822 43.4421 16.8581 42.001 17.61C40.5808 18.341 39.4635 19.3644 38.6489 20.6801C37.8553 21.9959 37.4585 23.4892 37.4585 25.16C37.4585 26.8308 37.8553 28.3241 38.6489 29.6399C39.4635 30.9557 40.5808 31.9895 42.001 32.7413Z" fill="#557FFF"/>
<path fill-rule="evenodd" clip-rule="evenodd" d="M73.4417 16.4822C76.0523 16.4822 78.0573 17.1088 79.4566 18.3619C80.8559 19.5941 81.5556 21.4633 81.5556 23.9695V33.2591C81.5556 33.4403 81.4087 33.5872 81.2275 33.5872H77.3098C77.1286 33.5872 76.9817 33.4403 76.9817 33.2591V31.4882C76.0628 33.0546 74.3502 33.8378 71.8439 33.8378C70.5491 33.8378 69.4213 33.6185 68.4605 33.1799C67.5207 32.7413 66.8002 32.1357 66.2989 31.3629C65.7977 30.5902 65.5471 29.713 65.5471 28.7314C65.5471 27.165 66.1318 25.9328 67.3014 25.0347C68.4919 24.1366 70.3193 23.6876 72.7838 23.6876H76.3404C76.5215 23.6876 76.6698 23.5404 76.6577 23.3596C76.5967 22.4538 76.2766 21.7486 75.6973 21.244C75.0498 20.6592 74.0787 20.3669 72.7838 20.3669C71.8857 20.3669 70.9981 20.513 70.1209 20.8054C69.4109 21.0305 68.7871 21.3274 68.2494 21.6961C68.0789 21.8131 67.8399 21.7618 67.7454 21.5778L66.304 18.7723C66.2292 18.6268 66.2727 18.4479 66.4095 18.3581C67.2784 17.7877 68.2963 17.3399 69.463 17.0148C70.7579 16.6597 72.0841 16.4822 73.4417 16.4822ZM73.0657 30.5484C73.9011 30.5484 74.6426 30.3604 75.29 29.9845C75.9374 29.5877 76.3969 29.0133 76.6684 28.2615V26.8665C76.6684 26.6853 76.5215 26.5384 76.3404 26.5384H73.3163C71.3114 26.5384 70.3089 27.1963 70.3089 28.5121C70.3089 29.1386 70.5491 29.6399 71.0294 30.0158C71.5307 30.3709 72.2094 30.5484 73.0657 30.5484Z" fill="url(#paint4_linear_118_3028)"/>
<path fill-rule="evenodd" clip-rule="evenodd" d="M73.4417 16.4822C76.0523 16.4822 78.0573 17.1088 79.4566 18.3619C80.8559 19.5941 81.5556 21.4633 81.5556 23.9695V33.2591C81.5556 33.4403 81.4087 33.5872 81.2275 33.5872H77.3098C77.1286 33.5872 76.9817 33.4403 76.9817 33.2591V31.4882C76.0628 33.0546 74.3502 33.8378 71.8439 33.8378C70.5491 33.8378 69.4213 33.6185 68.4605 33.1799C67.5207 32.7413 66.8002 32.1357 66.2989 31.3629C65.7977 30.5902 65.5471 29.713 65.5471 28.7314C65.5471 27.165 66.1318 25.9328 67.3014 25.0347C68.4919 24.1366 70.3193 23.6876 72.7838 23.6876H76.3404C76.5215 23.6876 76.6698 23.5404 76.6577 23.3596C76.5967 22.4538 76.2766 21.7486 75.6973 21.244C75.0498 20.6592 74.0787 20.3669 72.7838 20.3669C71.8857 20.3669 70.9981 20.513 70.1209 20.8054C69.4109 21.0305 68.7871 21.3274 68.2494 21.6961C68.0789 21.8131 67.8399 21.7618 67.7454 21.5778L66.304 18.7723C66.2292 18.6268 66.2727 18.4479 66.4095 18.3581C67.2784 17.7877 68.2963 17.3399 69.463 17.0148C70.7579 16.6597 72.0841 16.4822 73.4417 16.4822ZM73.0657 30.5484C73.9011 30.5484 74.6426 30.3604 75.29 29.9845C75.9374 29.5877 76.3969 29.0133 76.6684 28.2615V26.8665C76.6684 26.6853 76.5215 26.5384 76.3404 26.5384H73.3163C71.3114 26.5384 70.3089 27.1963 70.3089 28.5121C70.3089 29.1386 70.5491 29.6399 71.0294 30.0158C71.5307 30.3709 72.2094 30.5484 73.0657 30.5484Z" fill="#557FFF"/>
<path d="M61.7502 16.7328C61.9314 16.7328 62.0783 16.8797 62.0783 17.0609V33.2591C62.0783 33.4403 61.9314 33.5872 61.7502 33.5872H57.5192C57.338 33.5872 57.1911 33.4403 57.1911 33.2591V20.7741H56.175C55.9939 20.7741 55.847 20.6272 55.847 20.446V17.0609C55.847 16.8797 55.9939 16.7328 56.175 16.7328H61.7502Z" fill="url(#paint5_linear_118_3028)"/>
<path d="M61.7502 16.7328C61.9314 16.7328 62.0783 16.8797 62.0783 17.0609V33.2591C62.0783 33.4403 61.9314 33.5872 61.7502 33.5872H57.5192C57.338 33.5872 57.1911 33.4403 57.1911 33.2591V20.7741H56.175C55.9939 20.7741 55.847 20.6272 55.847 20.446V17.0609C55.847 16.8797 55.9939 16.7328 56.175 16.7328H61.7502Z" fill="#557FFF"/>
<path d="M57.1905 12.7852C57.1905 11.4358 58.2844 10.3419 59.6337 10.3419C60.9831 10.3419 62.077 11.4358 62.077 12.7852C62.077 14.1346 60.9831 15.2285 59.6337 15.2285C58.2844 15.2285 57.1905 14.1346 57.1905 12.7852Z" fill="url(#paint6_linear_118_3028)"/>
<path d="M57.1905 12.7852C57.1905 11.4358 58.2844 10.3419 59.6337 10.3419C60.9831 10.3419 62.077 11.4358 62.077 12.7852C62.077 14.1346 60.9831 15.2285 59.6337 15.2285C58.2844 15.2285 57.1905 14.1346 57.1905 12.7852Z" fill="#557FFF"/>
<path fill-rule="evenodd" clip-rule="evenodd" d="M115.808 44.3215L96.6161 33.241V11.0801L113.358 20.7462V22.9968C113.358 23.1935 113.518 23.3529 113.715 23.3529H115.369C115.52 23.3529 115.667 23.3561 115.808 23.3624L115.808 28.1395C115.666 28.1472 115.52 28.1511 115.369 28.1511C114.373 28.1511 113.395 28.0057 112.434 27.7149C111.639 27.4541 110.921 27.109 110.281 26.6798C110.097 26.5564 109.842 26.6151 109.742 26.8129L108.36 29.5427C108.281 29.699 108.326 29.8904 108.472 29.9877C109.327 30.5591 110.34 31.0101 111.51 31.3408C112.815 31.6861 114.137 31.8588 115.478 31.8588C115.589 31.8588 115.699 31.8576 115.808 31.8553L115.808 44.3215Z" fill="url(#paint7_linear_118_3028)"/>
<path fill-rule="evenodd" clip-rule="evenodd" d="M115.808 -0.000335693L135 11.0801L118.919 20.3644C118.687 20.3075 118.446 20.2587 118.196 20.2178L122.401 15.4113C122.458 15.3463 122.49 15.263 122.49 15.1767V12.8042C122.49 12.6074 122.33 12.448 122.133 12.448H109.53C109.333 12.448 109.173 12.6074 109.173 12.8042V15.6359C109.173 15.8326 109.333 15.9921 109.53 15.9921H116.484C116.79 15.9921 116.953 16.3536 116.751 16.5837L113.403 20.3854C113.374 20.4179 113.359 20.4598 113.359 20.5031V20.7463L96.6162 11.0801L115.808 -0.000335693Z" fill="url(#paint8_linear_118_3028)"/>
<path fill-rule="evenodd" clip-rule="evenodd" d="M118.919 20.3643L135 11.08V33.241L115.808 44.3215L115.808 31.8553C117.385 31.8212 118.725 31.5407 119.826 31.0136C121.022 30.4502 121.91 29.705 122.489 28.7781C123.069 27.833 123.359 26.8061 123.359 25.6975C123.359 24.2616 122.915 23.0621 122.027 22.0988C121.273 21.2646 120.237 20.6864 118.919 20.3643ZM115.808 23.3624L115.808 28.1394C116.707 28.0902 117.431 27.8851 117.978 27.524C118.612 27.0878 118.929 26.479 118.929 25.6975C118.929 24.2339 117.889 23.4555 115.808 23.3624Z" fill="url(#paint9_linear_118_3028)"/>
<defs>
<linearGradient id="paint0_linear_118_3028" x1="136.691" y1="-4.13916" x2="21.1481" y2="-56.1647" gradientUnits="userSpaceOnUse">
<stop stop-color="#01BFFF"/>
<stop offset="1" stop-color="#5558FF"/>
</linearGradient>
<linearGradient id="paint1_linear_118_3028" x1="136.691" y1="-4.13916" x2="21.1481" y2="-56.1647" gradientUnits="userSpaceOnUse">
<stop stop-color="#01BFFF"/>
<stop offset="1" stop-color="#5558FF"/>
</linearGradient>
<linearGradient id="paint2_linear_118_3028" x1="136.691" y1="-4.13916" x2="21.1481" y2="-56.1647" gradientUnits="userSpaceOnUse">
<stop stop-color="#01BFFF"/>
<stop offset="1" stop-color="#5558FF"/>
</linearGradient>
<linearGradient id="paint3_linear_118_3028" x1="136.691" y1="-4.13916" x2="21.1481" y2="-56.1647" gradientUnits="userSpaceOnUse">
<stop stop-color="#01BFFF"/>
<stop offset="1" stop-color="#5558FF"/>
</linearGradient>
<linearGradient id="paint4_linear_118_3028" x1="136.691" y1="-4.13916" x2="21.1481" y2="-56.1647" gradientUnits="userSpaceOnUse">
<stop stop-color="#01BFFF"/>
<stop offset="1" stop-color="#5558FF"/>
</linearGradient>
<linearGradient id="paint5_linear_118_3028" x1="136.691" y1="-4.13916" x2="21.1481" y2="-56.1647" gradientUnits="userSpaceOnUse">
<stop stop-color="#01BFFF"/>
<stop offset="1" stop-color="#5558FF"/>
</linearGradient>
<linearGradient id="paint6_linear_118_3028" x1="136.691" y1="-4.13916" x2="21.1481" y2="-56.1647" gradientUnits="userSpaceOnUse">
<stop stop-color="#01BFFF"/>
<stop offset="1" stop-color="#5558FF"/>
</linearGradient>
<linearGradient id="paint7_linear_118_3028" x1="93.9916" y1="29.3698" x2="116.212" y2="21.862" gradientUnits="userSpaceOnUse">
<stop stop-color="#729AFF"/>
<stop offset="1" stop-color="#3764FF"/>
</linearGradient>
<linearGradient id="paint8_linear_118_3028" x1="115.808" y1="-0.000335693" x2="115.808" y2="22.1606" gradientUnits="userSpaceOnUse">
<stop stop-color="#729AFF"/>
<stop offset="1" stop-color="#3764FF"/>
</linearGradient>
<linearGradient id="paint9_linear_118_3028" x1="139.593" y1="35.0289" x2="115.808" y2="21.4961" gradientUnits="userSpaceOnUse">
<stop stop-color="#729AFF"/>
<stop offset="0.880275" stop-color="#4B73FF"/>
</linearGradient>
</defs>
</svg>
