<svg width="26" height="25" viewBox="0 0 24 20" fill="none" xmlns="http://www.w3.org/2000/svg">
<path d="M23.7639 0.529957C22.7551 1.24154 21.6382 1.78579 20.4561 2.14174C19.8217 1.41223 18.9785 0.89518 18.0406 0.660507C17.1027 0.425834 16.1153 0.484864 15.2121 0.829615C14.3089 1.17437 13.5333 1.7882 12.9903 2.5881C12.4473 3.38801 12.163 4.33538 12.176 5.3021V6.35555C10.3247 6.40355 8.49022 5.99297 6.83602 5.16035C5.18182 4.32774 3.75921 3.09894 2.69489 1.58341C2.69489 1.58341 -1.51892 11.0645 7.96215 15.2783C5.7926 16.751 3.20809 17.4894 0.587982 17.3852C10.0691 22.6525 21.657 17.3852 21.657 5.27049C21.6561 4.97706 21.6279 4.68435 21.5728 4.39613C22.6479 3.33582 23.4066 1.99711 23.7639 0.529957Z" fill="#545454"/>
</svg>
