<svg width="32" height="31" viewBox="0 0 32 31" fill="none" xmlns="http://www.w3.org/2000/svg">
<g clip-path="url(#clip0_118_2906)">
<path d="M29.2961 29.951V26.7322C29.2961 25.0248 28.6178 23.3873 27.4105 22.18C26.2032 20.9727 24.5657 20.2944 22.8583 20.2944H9.98275C8.27535 20.2944 6.63788 20.9727 5.43056 22.18C4.22325 23.3873 3.54498 25.0248 3.54498 26.7322V29.951" stroke="#9A9A9A" stroke-width="1.93133" stroke-linecap="round" stroke-linejoin="round"/>
<path d="M16.4206 13.8566C19.9761 13.8566 22.8584 10.9743 22.8584 7.41886C22.8584 3.86338 19.9761 0.981089 16.4206 0.981089C12.8651 0.981089 9.98285 3.86338 9.98285 7.41886C9.98285 10.9743 12.8651 13.8566 16.4206 13.8566Z" stroke="#9A9A9A" stroke-width="1.93133" stroke-linecap="round" stroke-linejoin="round"/>
</g>
<defs>
<clipPath id="clip0_118_2906">
<rect width="30.9013" height="30.9013" fill="white" transform="translate(0.969971 0.0154171)"/>
</clipPath>
</defs>
</svg>
